# Created by Kenney (www.kenney.nl)

mtllib arrow.mtl

v 1 -6 -0.3
v 1 -5 -0.3
v 1 -6 0.3
v 1 -5 0.3
v 2 -6 -0.3
v 2 -6 0.3
v 2 -7 -0.3
v 1.5 -6 -0.3
v 1 -6.5 -0.3
v 1.5 -6 0.3
v 2 -7 0.3
v 1 -6.5 0.3
v 0 -6 0.3
v 0 -6 -0.3
v -1 -6 0.3
v -1 -6 -0.3
v 0 -5 0.3
v 0 -5 -0.3
v -0.5 -6 -0.3
v -0.5 -6 0.3
v 0 -6.5 -0.3
v 0 -6.5 0.3
v -1 -7 0.3
v -1 -7 -0.3
v 1 -7 0.6
v 1 -7 -0.6
v 0 -7 0.6
v 0 -7 -0.6
v 0 -6 -0.6
v 0 -6 0.6
v 1 -6 -0.6
v 1 -6 0.6
v 5.960464E-08 8 -0.3
v 0.5 9 -0.3
v 5.960464E-08 8 0.3
v 0.5 9 0.3
v 1 8 0.3
v 1 8 -0.3
v 1 7 0.3
v 1 7 -0.3
v 0 7 0.3
v 0 7 -0.3
v 0 8 -0.3
v 0 8 0.3
v 1 6 0.6
v 1 6 -0.6
v 0 6 0.6
v 0 6 -0.6
v 0 7 -0.6
v 0 7 0.6
v 1 7 -0.6
v 1 7 0.6
v 0 6 -0.3
v 0 6 0.3
v 1 6 -0.3
v 1 6 0.3

vn -1 0 0
vn 0 0 -1
vn 0.7071068 0.7071068 0
vn 0 0 1
vn 0 -1 0
vn 0.8944272 0.4472136 0
vn -0.4472136 -0.8944272 0
vn 0 1 0
vn 1 0 0
vn -0.7071068 0.7071068 0
vn -0.8944272 0.4472136 0
vn 0.4472136 -0.8944272 0
vn 0.8944272 0.4472136 0

vt 0 0

usemtl color15

f 3/1/1 2/1/1 1/1/1
f 2/1/1 3/1/1 4/1/1
f 2/1/2 5/1/2 1/1/2
f 2/1/3 6/1/3 5/1/3
f 6/1/3 2/1/3 4/1/3
f 4/1/4 3/1/4 6/1/4
f 3/1/5 5/1/5 6/1/5
f 5/1/5 3/1/5 1/1/5
f 9/1/2 8/1/2 7/1/2
f 8/1/2 9/1/2 1/1/2
f 10/1/6 7/1/6 8/1/6
f 7/1/6 10/1/6 11/1/6
f 12/1/7 7/1/7 11/1/7
f 7/1/7 12/1/7 9/1/7
f 10/1/4 12/1/4 11/1/4
f 12/1/4 10/1/4 3/1/4
f 12/1/1 1/1/1 9/1/1
f 1/1/1 12/1/1 3/1/1
f 1/1/8 10/1/8 8/1/8
f 10/1/8 1/1/8 3/1/8
f 15/1/5 14/1/5 13/1/5
f 14/1/5 15/1/5 16/1/5
f 17/1/4 15/1/4 13/1/4
f 18/1/2 14/1/2 16/1/2
f 17/1/9 14/1/9 18/1/9
f 14/1/9 17/1/9 13/1/9
f 15/1/10 18/1/10 16/1/10
f 18/1/10 15/1/10 17/1/10
f 19/1/8 13/1/8 14/1/8
f 13/1/8 19/1/8 20/1/8
f 13/1/9 21/1/9 14/1/9
f 21/1/9 13/1/9 22/1/9
f 22/1/4 20/1/4 23/1/4
f 20/1/4 22/1/4 13/1/4
f 24/1/11 20/1/11 19/1/11
f 20/1/11 24/1/11 23/1/11
f 19/1/2 21/1/2 24/1/2
f 21/1/2 19/1/2 14/1/2
f 23/1/12 21/1/12 22/1/12
f 21/1/12 23/1/12 24/1/12
f 13/1/5 1/1/5 3/1/5
f 1/1/5 13/1/5 14/1/5
f 13/1/1 18/1/1 14/1/1
f 18/1/1 13/1/1 17/1/1
f 18/1/2 1/1/2 14/1/2
f 1/1/2 18/1/2 2/1/2
f 4/1/4 13/1/4 3/1/4
f 13/1/4 4/1/4 17/1/4
f 4/1/9 1/1/9 2/1/9
f 1/1/9 4/1/9 3/1/9
f 18/1/8 4/1/8 2/1/8
f 4/1/8 18/1/8 17/1/8
f 27/1/5 26/1/5 25/1/5
f 26/1/5 27/1/5 28/1/5
f 27/1/1 29/1/1 28/1/1
f 29/1/1 27/1/1 30/1/1
f 29/1/2 26/1/2 28/1/2
f 26/1/2 29/1/2 31/1/2
f 32/1/4 27/1/4 25/1/4
f 27/1/4 32/1/4 30/1/4
f 32/1/9 26/1/9 31/1/9
f 26/1/9 32/1/9 25/1/9
f 29/1/8 32/1/8 31/1/8
f 32/1/8 29/1/8 30/1/8

usemtl color13

f 35/1/11 34/1/11 33/1/11
f 34/1/11 35/1/11 36/1/11
f 36/1/4 35/1/4 37/1/4
f 36/1/13 38/1/13 34/1/13
f 38/1/13 36/1/13 37/1/13
f 34/1/2 38/1/2 33/1/2
f 35/1/5 38/1/5 37/1/5
f 38/1/5 35/1/5 33/1/5
f 41/1/5 40/1/5 39/1/5
f 40/1/5 41/1/5 42/1/5
f 41/1/1 43/1/1 42/1/1
f 43/1/1 41/1/1 44/1/1
f 33/1/2 40/1/2 42/1/2
f 40/1/2 33/1/2 38/1/2
f 37/1/4 41/1/4 39/1/4
f 41/1/4 37/1/4 35/1/4
f 37/1/9 40/1/9 38/1/9
f 40/1/9 37/1/9 39/1/9
f 43/1/8 37/1/8 38/1/8
f 37/1/8 43/1/8 44/1/8
f 47/1/5 46/1/5 45/1/5
f 46/1/5 47/1/5 48/1/5
f 47/1/1 49/1/1 48/1/1
f 49/1/1 47/1/1 50/1/1
f 49/1/2 46/1/2 48/1/2
f 46/1/2 49/1/2 51/1/2
f 52/1/4 47/1/4 45/1/4
f 47/1/4 52/1/4 50/1/4
f 52/1/9 46/1/9 51/1/9
f 46/1/9 52/1/9 45/1/9
f 49/1/8 52/1/8 51/1/8
f 52/1/8 49/1/8 50/1/8

usemtl color0

f 17/1/5 2/1/5 4/1/5
f 2/1/5 17/1/5 18/1/5
f 17/1/1 53/1/1 18/1/1
f 53/1/1 17/1/1 54/1/1
f 53/1/2 2/1/2 18/1/2
f 2/1/2 53/1/2 55/1/2
f 56/1/4 17/1/4 4/1/4
f 17/1/4 56/1/4 54/1/4
f 56/1/9 2/1/9 55/1/9
f 2/1/9 56/1/9 4/1/9
f 53/1/8 56/1/8 55/1/8
f 56/1/8 53/1/8 54/1/8

