# Created by Kenney (www.kenney.nl)

mtllib shield3.mtl

v 1 4 -1.15
v 1.5 4 -1.15
v 1 5 -1.15
v 1.5 5 -1.15
v 1.5 5 1.15
v 1 5 1.15
v 1.5 4 1.15
v 1 4 1.15
v 1 3 -1.15
v 1.5 3 -1.15
v 1.5 3 1.15
v 1 3 1.15
v 1 2 -1.15
v 1.5 2 -1.15
v 1.5 2 1.15
v 1 2 1.15
v 1 1 -1.15
v 1.5 1 -1.15
v 1.5 1 1.15
v 1 1 1.15
v 1 0 -1.15
v 1.5 0 -1.15
v 1.5 0 1.15
v 1 0 1.15
v 1 4 2.3
v 1 4 -2.3
v 0 4 2.3
v 0 4 -2.3
v 0 5 -2.3
v 0 5 2.3
v 1 5 -2.3
v 1 5 2.3
v 0 4 5.75
v 0 4 -5.75
v -1 4 5.75
v -1 4 -5.75
v -1 5 -5.75
v -1 5 5.75
v 0 5 -5.75
v 0 5 5.75
v 1 0 2.3
v 1 0 -2.3
v 0 0 2.3
v 0 0 -2.3
v 0 1 -2.3
v 0 1 2.3
v 1 1 -2.3
v 1 1 2.3
v 0 0 5.75
v 0 0 -5.75
v -1 0 5.75
v -1 0 -5.75
v -1 1 -5.75
v -1 1 5.75
v 0 1 -5.75
v 0 1 5.75
v 0 11 5.75
v -1 11 5.75
v -0.03407419 11.25882 5.75
v -0.9999999 12 5.75
v -0.1339746 11.5 5.75
v -0.2928932 11.70711 5.75
v -0.5 11.86602 5.75
v -0.741181 11.96593 5.75
v -0.2928932 11.70711 -5.75
v -0.5 11.86602 -5.75
v -0.1339746 11.5 -5.75
v -0.03407419 11.25882 -5.75
v 0 11 -5.75
v -0.741181 11.96593 -5.75
v -0.9999999 12 -5.75
v -1 11 -5.75
v 0 10.5 -5.75
v 0 10.5 5.75
v -1 10 5.75
v -0.5 10 5.75
v -0.4829629 10.12941 5.75
v -0.4330127 10.25 5.75
v -0.3535534 10.35355 5.75
v -0.25 10.43301 5.75
v -0.1294095 10.48296 5.75
v -0.5 10 -5.75
v -1 10 -5.75
v -0.25 10.43301 -5.75
v -0.3535534 10.35355 -5.75
v -0.1294095 10.48296 -5.75
v -0.4330127 10.25 -5.75
v -0.4829629 10.12941 -5.75
v -1 9 -5.75
v -0.5 9 -5.75
v -0.5 9 5.75
v -1 9 5.75
v -1 8 -5.75
v -0.5 8 -5.75
v -0.5 8 5.75
v -1 8 5.75
v -1 7 -5.75
v -0.5 7 -5.75
v -0.5 7 5.75
v -1 7 5.75
v -1 6 -5.75
v -0.5 6 -5.75
v -0.5 6 5.75
v -1 6 5.75
v -0.5 5 -5.75
v -0.5 5 5.75
v -1 3 -5.75
v -0.5 3 -5.75
v -0.5 4 -5.75
v -0.5 4 5.75
v -0.5 3 5.75
v -1 3 5.75
v -1 2 -5.75
v -0.5 2 -5.75
v -0.5 2 5.75
v -1 2 5.75
v -0.5 1 -5.75
v -0.5 1 5.75
v -1 -1 -5.75
v -0.5 -1 -5.75
v -0.5 0 -5.75
v -0.5 0 5.75
v -0.5 -1 5.75
v -1 -1 5.75
v -1 -2 -5.75
v -0.5 -2 -5.75
v -0.5 -2 5.75
v -1 -2 5.75
v -1 -3 -5.75
v -0.5 -3 -5.75
v -0.5 -3 5.75
v -1 -3 5.75
v -1 -4 -5.75
v -0.5 -4 -5.75
v -0.5 -4 5.75
v -1 -4 5.75
v -1 -5 -5.75
v -0.5 -5 -5.75
v -0.5 -5 5.75
v -1 -5 5.75
v -1 -6 -5.75
v -0.5 -6 -5.75
v -0.5 -6 5.75
v -1 -6 5.75
v -1 -7 -5.75
v -0.5 -7 -5.75
v -0.5 -7 5.75
v -1 -7 5.75
v -1 -8 -5.75
v -0.5 -8 -5.75
v -0.5 -8 5.75
v -1 -8 5.75
v 0 -9 -5.75
v 0 -8.5 -5.75
v -1 -9 -5.75
v -0.1294095 -8.482963 -5.75
v -0.25 -8.433013 -5.75
v -0.3535534 -8.353554 -5.75
v -0.4330127 -8.25 -5.75
v -0.4829629 -8.12941 -5.75
v -0.1294095 -8.482963 5.75
v -0.25 -8.433013 5.75
v 0 -8.5 5.75
v -0.3535534 -8.353554 5.75
v -0.4330127 -8.25 5.75
v -0.4829629 -8.12941 5.75
v -0.5 -8 5.75
v -0.5 -8 -5.75
v 0 -9 5.75
v -1 -9 5.75
v -0.9999999 -8 -5.75
v -0.9999999 -8 5.75
v -0.741181 -9.965926 5.75
v -0.741181 -9.965926 -5.75
v -1 -10 5.75
v -1 -10 -5.75
v -0.5 -9.866025 -5.75
v -0.5 -9.866025 5.75
v -0.2928932 -9.707107 -5.75
v -0.2928932 -9.707107 5.75
v -0.1339746 -9.5 5.75
v -0.1339746 -9.5 -5.75
v -0.03407419 -9.258819 5.75
v -0.03407419 -9.258819 -5.75
v -1.258819 11.96593 -5.75
v -1.258819 11.96593 5.75
v -1.5 11.86602 -5.75
v -1.5 11.86602 5.75
v -1 12 5.75
v -1 12 -5.75
v -1.707107 11.70711 -5.75
v -1.707107 11.70711 5.75
v -1.866025 11.5 5.75
v -1.866025 11.5 -5.75
v -1.965926 11.25882 5.75
v -1.965926 11.25882 -5.75
v -2 11 5.75
v -2 11 -5.75
v -1.5 -9.866025 5.75
v -1.5 -9.866025 -5.75
v -1.707107 -9.707107 5.75
v -1.707107 -9.707107 -5.75
v -1.258819 -9.965926 -5.75
v -1.258819 -9.965926 5.75
v -1.866025 -9.5 -5.75
v -1.866025 -9.5 5.75
v -1.965926 -9.258819 -5.75
v -1.965926 -9.258819 5.75
v -2 -9 -5.75
v -2 -9 5.75
v -2 10 5.75
v -2 10 -5.75
v -3 10 5.75
v -3 10 -5.75
v -2 -8 -1.15
v -2 -9 -1.15
v -2 -8 1.15
v -2 -9 1.15
v -3 -8 1.15
v -3 -8 -1.15
v -1 9 6.9
v -1 9 -6.9
v -2 9 6.9
v -2 9 -6.9
v -2 10 -6.9
v -2 10 6.9
v -1 10 -6.9
v -1 10 6.9
v -2 9 5.75
v -2 9 -5.75
v -3 9 5.75
v -3 9 -5.75
v -1 -7 8.05
v -1 -7 -8.05
v -2 -7 8.05
v -2 -7 -8.05
v -2 9 -8.05
v -2 9 8.05
v -1 9 -8.05
v -1 9 8.05
v -2 8 6.9
v -2 8 -6.9
v -3 8 6.9
v -3 8 -6.9
v -3 9 -6.9
v -3 9 6.9
v -2 6 8.05
v -2 6 -8.05
v -3 6 8.05
v -3 6 -8.05
v -3 8 -8.05
v -3 8 8.05
v -2 8 -8.05
v -2 8 8.05
v -2 -3 9.2
v -2 -3 -9.2
v -3 -3 9.2
v -3 -3 -9.2
v -3 6 -9.2
v -3 6 9.2
v -2 6 -9.2
v -2 6 9.2
v -2 -6 8.05
v -2 -6 -8.05
v -3 -6 8.05
v -3 -6 -8.05
v -3 -3 -8.05
v -3 -3 8.05
v -2 -3 -8.05
v -2 -3 8.05
v -2 -7 6.9
v -2 -7 -6.9
v -3 -7 6.9
v -3 -7 -6.9
v -3 -6 -6.9
v -3 -6 6.9
v -2 -6 -6.9
v -2 -6 6.9
v -1 -8 6.9
v -1 -8 -6.9
v -2 -8 6.9
v -2 -8 -6.9
v -1 -7 -6.9
v -1 -7 6.9
v -2 -8 5.75
v -2 -8 -5.75
v -3 -8 5.75
v -3 -8 -5.75
v -3 -7 -5.75
v -3 -7 5.75
v -2 -7 -5.75
v -2 -7 5.75

vn 0 0 -1
vn 0 1 0
vn 0 -1 0
vn -1 0 0
vn 0 0 1
vn 1 0 0
vn 0.7071068 0.7071068 0
vn 0.5 0.8660254 0
vn 0.8660254 0.5 0
vn 0.9659259 0.2588191 0
vn 0.9914449 0.1305262 0
vn 0.2588191 0.9659258 0
vn 0.1305262 0.9914449 0
vn 0.5 -0.8660254 0
vn 0.7071068 -0.7071068 0
vn 0.2588191 -0.9659259 0
vn 0.1305262 -0.9914449 0
vn 0.8660254 -0.5 0
vn 0.9659259 -0.2588191 0
vn 0.9914449 -0.1305262 0
vn -0.2588191 0.9659259 0
vn -0.5 0.8660254 0
vn -0.1305262 0.9914449 0
vn -0.7071068 0.7071068 0
vn -0.8660254 0.5 0
vn -0.9659259 0.2588191 0
vn -0.9914449 0.1305262 0
vn -0.5 -0.8660254 0
vn -0.7071068 -0.7071068 0
vn -0.2588191 -0.9659259 0
vn -0.1305262 -0.9914449 0
vn -0.8660254 -0.5 0
vn -0.9659259 -0.2588191 0
vn -0.9914449 -0.1305262 0

vt 0 0

usemtl color3

f 3/1/1 2/1/1 1/1/1
f 2/1/1 3/1/1 4/1/1
f 3/1/2 5/1/2 4/1/2
f 5/1/2 3/1/2 6/1/2
f 8/1/3 2/1/3 7/1/3
f 2/1/3 8/1/3 1/1/3
f 8/1/4 3/1/4 1/1/4
f 3/1/4 8/1/4 6/1/4
f 7/1/5 6/1/5 8/1/5
f 6/1/5 7/1/5 5/1/5
f 5/1/6 2/1/6 4/1/6
f 2/1/6 5/1/6 7/1/6
f 1/1/1 10/1/1 9/1/1
f 10/1/1 1/1/1 2/1/1
f 1/1/2 7/1/2 2/1/2
f 7/1/2 1/1/2 8/1/2
f 12/1/3 10/1/3 11/1/3
f 10/1/3 12/1/3 9/1/3
f 12/1/4 1/1/4 9/1/4
f 1/1/4 12/1/4 8/1/4
f 11/1/5 8/1/5 12/1/5
f 8/1/5 11/1/5 7/1/5
f 7/1/6 10/1/6 2/1/6
f 10/1/6 7/1/6 11/1/6
f 9/1/1 14/1/1 13/1/1
f 14/1/1 9/1/1 10/1/1
f 9/1/2 11/1/2 10/1/2
f 11/1/2 9/1/2 12/1/2
f 16/1/3 14/1/3 15/1/3
f 14/1/3 16/1/3 13/1/3
f 16/1/4 9/1/4 13/1/4
f 9/1/4 16/1/4 12/1/4
f 15/1/5 12/1/5 16/1/5
f 12/1/5 15/1/5 11/1/5
f 11/1/6 14/1/6 10/1/6
f 14/1/6 11/1/6 15/1/6
f 13/1/1 18/1/1 17/1/1
f 18/1/1 13/1/1 14/1/1
f 13/1/2 15/1/2 14/1/2
f 15/1/2 13/1/2 16/1/2
f 20/1/3 18/1/3 19/1/3
f 18/1/3 20/1/3 17/1/3
f 20/1/4 13/1/4 17/1/4
f 13/1/4 20/1/4 16/1/4
f 19/1/5 16/1/5 20/1/5
f 16/1/5 19/1/5 15/1/5
f 15/1/6 18/1/6 14/1/6
f 18/1/6 15/1/6 19/1/6
f 17/1/1 22/1/1 21/1/1
f 22/1/1 17/1/1 18/1/1
f 17/1/2 19/1/2 18/1/2
f 19/1/2 17/1/2 20/1/2
f 24/1/3 22/1/3 23/1/3
f 22/1/3 24/1/3 21/1/3
f 24/1/4 17/1/4 21/1/4
f 17/1/4 24/1/4 20/1/4
f 23/1/5 20/1/5 24/1/5
f 20/1/5 23/1/5 19/1/5
f 19/1/6 22/1/6 18/1/6
f 22/1/6 19/1/6 23/1/6
f 27/1/3 26/1/3 25/1/3
f 26/1/3 27/1/3 28/1/3
f 27/1/4 29/1/4 28/1/4
f 29/1/4 27/1/4 30/1/4
f 29/1/1 26/1/1 28/1/1
f 26/1/1 29/1/1 31/1/1
f 32/1/5 27/1/5 25/1/5
f 27/1/5 32/1/5 30/1/5
f 32/1/6 26/1/6 31/1/6
f 26/1/6 32/1/6 25/1/6
f 29/1/2 32/1/2 31/1/2
f 32/1/2 29/1/2 30/1/2
f 35/1/3 34/1/3 33/1/3
f 34/1/3 35/1/3 36/1/3
f 35/1/4 37/1/4 36/1/4
f 37/1/4 35/1/4 38/1/4
f 37/1/1 34/1/1 36/1/1
f 34/1/1 37/1/1 39/1/1
f 40/1/5 35/1/5 33/1/5
f 35/1/5 40/1/5 38/1/5
f 40/1/6 34/1/6 39/1/6
f 34/1/6 40/1/6 33/1/6
f 37/1/2 40/1/2 39/1/2
f 40/1/2 37/1/2 38/1/2
f 43/1/3 42/1/3 41/1/3
f 42/1/3 43/1/3 44/1/3
f 43/1/4 45/1/4 44/1/4
f 45/1/4 43/1/4 46/1/4
f 45/1/1 42/1/1 44/1/1
f 42/1/1 45/1/1 47/1/1
f 48/1/5 43/1/5 41/1/5
f 43/1/5 48/1/5 46/1/5
f 48/1/6 42/1/6 47/1/6
f 42/1/6 48/1/6 41/1/6
f 45/1/2 48/1/2 47/1/2
f 48/1/2 45/1/2 46/1/2
f 51/1/3 50/1/3 49/1/3
f 50/1/3 51/1/3 52/1/3
f 51/1/4 53/1/4 52/1/4
f 53/1/4 51/1/4 54/1/4
f 53/1/1 50/1/1 52/1/1
f 50/1/1 53/1/1 55/1/1
f 56/1/5 51/1/5 49/1/5
f 51/1/5 56/1/5 54/1/5
f 56/1/6 50/1/6 55/1/6
f 50/1/6 56/1/6 49/1/6
f 53/1/2 56/1/2 55/1/2
f 56/1/2 53/1/2 54/1/2

usemtl color14

f 59/1/5 58/1/5 57/1/5
f 58/1/5 59/1/5 60/1/5
f 60/1/5 59/1/5 61/1/5
f 60/1/5 61/1/5 62/1/5
f 60/1/5 62/1/5 63/1/5
f 60/1/5 63/1/5 64/1/5
f 66/1/8 62/1/7 65/1/7
f 62/1/7 66/1/8 63/1/8
f 62/1/7 67/1/9 65/1/7
f 67/1/9 62/1/7 61/1/9
f 61/1/9 68/1/10 67/1/9
f 68/1/10 61/1/9 59/1/10
f 59/1/10 69/1/11 68/1/10
f 69/1/11 59/1/10 57/1/11
f 70/1/12 63/1/8 66/1/8
f 63/1/8 70/1/12 64/1/12
f 71/1/13 64/1/12 70/1/12
f 64/1/12 71/1/13 60/1/13
f 72/1/1 68/1/1 69/1/1
f 68/1/1 72/1/1 71/1/1
f 68/1/1 71/1/1 67/1/1
f 67/1/1 71/1/1 65/1/1
f 65/1/1 71/1/1 66/1/1
f 66/1/1 71/1/1 70/1/1
f 58/1/3 69/1/3 57/1/3
f 69/1/3 58/1/3 72/1/3
f 58/1/4 71/1/4 72/1/4
f 71/1/4 58/1/4 60/1/4
f 57/1/6 73/1/6 69/1/6
f 73/1/6 57/1/6 74/1/6
f 76/1/5 58/1/5 75/1/5
f 58/1/5 76/1/5 77/1/5
f 58/1/5 77/1/5 78/1/5
f 58/1/5 78/1/5 79/1/5
f 58/1/5 79/1/5 80/1/5
f 58/1/5 80/1/5 81/1/5
f 58/1/5 81/1/5 74/1/5
f 58/1/5 74/1/5 57/1/5
f 75/1/3 82/1/3 76/1/3
f 82/1/3 75/1/3 83/1/3
f 72/1/2 57/1/2 69/1/2
f 57/1/2 72/1/2 58/1/2
f 79/1/15 84/1/14 80/1/14
f 84/1/14 79/1/15 85/1/15
f 86/1/16 80/1/14 84/1/14
f 80/1/14 86/1/16 81/1/16
f 73/1/17 81/1/16 86/1/16
f 81/1/16 73/1/17 74/1/17
f 79/1/15 87/1/18 85/1/15
f 87/1/18 79/1/15 78/1/18
f 78/1/18 88/1/19 87/1/18
f 88/1/19 78/1/18 77/1/19
f 77/1/19 82/1/20 88/1/19
f 82/1/20 77/1/19 76/1/20
f 75/1/4 72/1/4 83/1/4
f 72/1/4 75/1/4 58/1/4
f 72/1/1 82/1/1 83/1/1
f 82/1/1 72/1/1 88/1/1
f 88/1/1 72/1/1 87/1/1
f 87/1/1 72/1/1 85/1/1
f 85/1/1 72/1/1 84/1/1
f 84/1/1 72/1/1 86/1/1
f 86/1/1 72/1/1 73/1/1
f 73/1/1 72/1/1 69/1/1
f 83/1/1 90/1/1 89/1/1
f 90/1/1 83/1/1 82/1/1
f 83/1/2 76/1/2 82/1/2
f 76/1/2 83/1/2 75/1/2
f 92/1/3 90/1/3 91/1/3
f 90/1/3 92/1/3 89/1/3
f 92/1/4 83/1/4 89/1/4
f 83/1/4 92/1/4 75/1/4
f 91/1/5 75/1/5 92/1/5
f 75/1/5 91/1/5 76/1/5
f 76/1/6 90/1/6 82/1/6
f 90/1/6 76/1/6 91/1/6
f 89/1/1 94/1/1 93/1/1
f 94/1/1 89/1/1 90/1/1
f 89/1/2 91/1/2 90/1/2
f 91/1/2 89/1/2 92/1/2
f 96/1/3 94/1/3 95/1/3
f 94/1/3 96/1/3 93/1/3
f 96/1/4 89/1/4 93/1/4
f 89/1/4 96/1/4 92/1/4
f 95/1/5 92/1/5 96/1/5
f 92/1/5 95/1/5 91/1/5
f 91/1/6 94/1/6 90/1/6
f 94/1/6 91/1/6 95/1/6
f 93/1/1 98/1/1 97/1/1
f 98/1/1 93/1/1 94/1/1
f 93/1/2 95/1/2 94/1/2
f 95/1/2 93/1/2 96/1/2
f 100/1/3 98/1/3 99/1/3
f 98/1/3 100/1/3 97/1/3
f 100/1/4 93/1/4 97/1/4
f 93/1/4 100/1/4 96/1/4
f 99/1/5 96/1/5 100/1/5
f 96/1/5 99/1/5 95/1/5
f 95/1/6 98/1/6 94/1/6
f 98/1/6 95/1/6 99/1/6
f 97/1/1 102/1/1 101/1/1
f 102/1/1 97/1/1 98/1/1
f 97/1/2 99/1/2 98/1/2
f 99/1/2 97/1/2 100/1/2
f 104/1/3 102/1/3 103/1/3
f 102/1/3 104/1/3 101/1/3
f 104/1/4 97/1/4 101/1/4
f 97/1/4 104/1/4 100/1/4
f 103/1/5 100/1/5 104/1/5
f 100/1/5 103/1/5 99/1/5
f 99/1/6 102/1/6 98/1/6
f 102/1/6 99/1/6 103/1/6
f 101/1/1 105/1/1 37/1/1
f 105/1/1 101/1/1 102/1/1
f 101/1/2 103/1/2 102/1/2
f 103/1/2 101/1/2 104/1/2
f 38/1/3 105/1/3 106/1/3
f 105/1/3 38/1/3 37/1/3
f 38/1/4 101/1/4 37/1/4
f 101/1/4 38/1/4 104/1/4
f 106/1/5 104/1/5 38/1/5
f 104/1/5 106/1/5 103/1/5
f 103/1/6 105/1/6 102/1/6
f 105/1/6 103/1/6 106/1/6
f 36/1/1 108/1/1 107/1/1
f 108/1/1 36/1/1 109/1/1
f 36/1/2 110/1/2 109/1/2
f 110/1/2 36/1/2 35/1/2
f 112/1/3 108/1/3 111/1/3
f 108/1/3 112/1/3 107/1/3
f 112/1/4 36/1/4 107/1/4
f 36/1/4 112/1/4 35/1/4
f 111/1/5 35/1/5 112/1/5
f 35/1/5 111/1/5 110/1/5
f 110/1/6 108/1/6 109/1/6
f 108/1/6 110/1/6 111/1/6
f 107/1/1 114/1/1 113/1/1
f 114/1/1 107/1/1 108/1/1
f 107/1/2 111/1/2 108/1/2
f 111/1/2 107/1/2 112/1/2
f 116/1/3 114/1/3 115/1/3
f 114/1/3 116/1/3 113/1/3
f 116/1/4 107/1/4 113/1/4
f 107/1/4 116/1/4 112/1/4
f 115/1/5 112/1/5 116/1/5
f 112/1/5 115/1/5 111/1/5
f 111/1/6 114/1/6 108/1/6
f 114/1/6 111/1/6 115/1/6
f 113/1/1 117/1/1 53/1/1
f 117/1/1 113/1/1 114/1/1
f 113/1/2 115/1/2 114/1/2
f 115/1/2 113/1/2 116/1/2
f 54/1/3 117/1/3 118/1/3
f 117/1/3 54/1/3 53/1/3
f 54/1/4 113/1/4 53/1/4
f 113/1/4 54/1/4 116/1/4
f 118/1/5 116/1/5 54/1/5
f 116/1/5 118/1/5 115/1/5
f 115/1/6 117/1/6 114/1/6
f 117/1/6 115/1/6 118/1/6
f 52/1/1 120/1/1 119/1/1
f 120/1/1 52/1/1 121/1/1
f 52/1/2 122/1/2 121/1/2
f 122/1/2 52/1/2 51/1/2
f 124/1/3 120/1/3 123/1/3
f 120/1/3 124/1/3 119/1/3
f 124/1/4 52/1/4 119/1/4
f 52/1/4 124/1/4 51/1/4
f 123/1/5 51/1/5 124/1/5
f 51/1/5 123/1/5 122/1/5
f 122/1/6 120/1/6 121/1/6
f 120/1/6 122/1/6 123/1/6
f 119/1/1 126/1/1 125/1/1
f 126/1/1 119/1/1 120/1/1
f 119/1/2 123/1/2 120/1/2
f 123/1/2 119/1/2 124/1/2
f 128/1/3 126/1/3 127/1/3
f 126/1/3 128/1/3 125/1/3
f 128/1/4 119/1/4 125/1/4
f 119/1/4 128/1/4 124/1/4
f 127/1/5 124/1/5 128/1/5
f 124/1/5 127/1/5 123/1/5
f 123/1/6 126/1/6 120/1/6
f 126/1/6 123/1/6 127/1/6
f 125/1/1 130/1/1 129/1/1
f 130/1/1 125/1/1 126/1/1
f 125/1/2 127/1/2 126/1/2
f 127/1/2 125/1/2 128/1/2
f 132/1/3 130/1/3 131/1/3
f 130/1/3 132/1/3 129/1/3
f 132/1/4 125/1/4 129/1/4
f 125/1/4 132/1/4 128/1/4
f 131/1/5 128/1/5 132/1/5
f 128/1/5 131/1/5 127/1/5
f 127/1/6 130/1/6 126/1/6
f 130/1/6 127/1/6 131/1/6
f 129/1/1 134/1/1 133/1/1
f 134/1/1 129/1/1 130/1/1
f 129/1/2 131/1/2 130/1/2
f 131/1/2 129/1/2 132/1/2
f 136/1/3 134/1/3 135/1/3
f 134/1/3 136/1/3 133/1/3
f 136/1/4 129/1/4 133/1/4
f 129/1/4 136/1/4 132/1/4
f 135/1/5 132/1/5 136/1/5
f 132/1/5 135/1/5 131/1/5
f 131/1/6 134/1/6 130/1/6
f 134/1/6 131/1/6 135/1/6
f 133/1/1 138/1/1 137/1/1
f 138/1/1 133/1/1 134/1/1
f 133/1/2 135/1/2 134/1/2
f 135/1/2 133/1/2 136/1/2
f 140/1/3 138/1/3 139/1/3
f 138/1/3 140/1/3 137/1/3
f 140/1/4 133/1/4 137/1/4
f 133/1/4 140/1/4 136/1/4
f 139/1/5 136/1/5 140/1/5
f 136/1/5 139/1/5 135/1/5
f 135/1/6 138/1/6 134/1/6
f 138/1/6 135/1/6 139/1/6
f 137/1/1 142/1/1 141/1/1
f 142/1/1 137/1/1 138/1/1
f 137/1/2 139/1/2 138/1/2
f 139/1/2 137/1/2 140/1/2
f 144/1/3 142/1/3 143/1/3
f 142/1/3 144/1/3 141/1/3
f 144/1/4 137/1/4 141/1/4
f 137/1/4 144/1/4 140/1/4
f 143/1/5 140/1/5 144/1/5
f 140/1/5 143/1/5 139/1/5
f 139/1/6 142/1/6 138/1/6
f 142/1/6 139/1/6 143/1/6
f 141/1/1 146/1/1 145/1/1
f 146/1/1 141/1/1 142/1/1
f 141/1/2 143/1/2 142/1/2
f 143/1/2 141/1/2 144/1/2
f 148/1/3 146/1/3 147/1/3
f 146/1/3 148/1/3 145/1/3
f 148/1/4 141/1/4 145/1/4
f 141/1/4 148/1/4 144/1/4
f 147/1/5 144/1/5 148/1/5
f 144/1/5 147/1/5 143/1/5
f 143/1/6 146/1/6 142/1/6
f 146/1/6 143/1/6 147/1/6
f 145/1/1 150/1/1 149/1/1
f 150/1/1 145/1/1 146/1/1
f 145/1/2 147/1/2 146/1/2
f 147/1/2 145/1/2 148/1/2
f 152/1/3 150/1/3 151/1/3
f 150/1/3 152/1/3 149/1/3
f 152/1/4 145/1/4 149/1/4
f 145/1/4 152/1/4 148/1/4
f 151/1/5 148/1/5 152/1/5
f 148/1/5 151/1/5 147/1/5
f 147/1/6 150/1/6 146/1/6
f 150/1/6 147/1/6 151/1/6
f 155/1/1 154/1/1 153/1/1
f 154/1/1 155/1/1 156/1/1
f 156/1/1 155/1/1 157/1/1
f 157/1/1 155/1/1 149/1/1
f 157/1/1 149/1/1 158/1/1
f 158/1/1 149/1/1 159/1/1
f 159/1/1 149/1/1 160/1/1
f 160/1/1 149/1/1 150/1/1
f 157/1/8 161/1/12 156/1/12
f 161/1/12 157/1/8 162/1/8
f 163/1/13 156/1/12 161/1/12
f 156/1/12 163/1/13 154/1/13
f 158/1/7 162/1/8 157/1/8
f 162/1/8 158/1/7 164/1/7
f 158/1/7 165/1/9 164/1/7
f 165/1/9 158/1/7 159/1/9
f 159/1/9 166/1/10 165/1/9
f 166/1/10 159/1/9 160/1/10
f 160/1/10 167/1/11 166/1/10
f 167/1/11 160/1/10 168/1/11
f 163/1/5 170/1/5 169/1/5
f 170/1/5 163/1/5 161/1/5
f 170/1/5 161/1/5 162/1/5
f 170/1/5 162/1/5 152/1/5
f 152/1/5 162/1/5 164/1/5
f 152/1/5 164/1/5 165/1/5
f 152/1/5 165/1/5 166/1/5
f 152/1/5 166/1/5 151/1/5
f 170/1/4 149/1/4 155/1/4
f 149/1/4 170/1/4 152/1/4
f 170/1/3 153/1/3 169/1/3
f 153/1/3 170/1/3 155/1/3
f 154/1/6 169/1/6 153/1/6
f 169/1/6 154/1/6 163/1/6
f 171/1/2 167/1/2 168/1/2
f 167/1/2 171/1/2 172/1/2
f 175/1/17 174/1/16 173/1/16
f 174/1/16 175/1/17 176/1/17
f 177/1/14 173/1/16 174/1/16
f 173/1/16 177/1/14 178/1/14
f 179/1/15 178/1/14 177/1/14
f 178/1/14 179/1/15 180/1/15
f 179/1/15 181/1/18 180/1/15
f 181/1/18 179/1/15 182/1/18
f 182/1/18 183/1/19 181/1/18
f 183/1/19 182/1/18 184/1/19
f 184/1/19 169/1/20 183/1/19
f 169/1/20 184/1/19 153/1/20
f 175/1/4 155/1/4 176/1/4
f 155/1/4 175/1/4 170/1/4
f 155/1/2 169/1/2 153/1/2
f 169/1/2 155/1/2 170/1/2
f 155/1/1 174/1/1 176/1/1
f 174/1/1 155/1/1 177/1/1
f 177/1/1 155/1/1 179/1/1
f 179/1/1 155/1/1 182/1/1
f 182/1/1 155/1/1 184/1/1
f 184/1/1 155/1/1 153/1/1
f 173/1/5 170/1/5 175/1/5
f 170/1/5 173/1/5 178/1/5
f 170/1/5 178/1/5 180/1/5
f 170/1/5 180/1/5 181/1/5
f 170/1/5 181/1/5 183/1/5
f 170/1/5 183/1/5 169/1/5
f 187/1/22 186/1/21 185/1/21
f 186/1/21 187/1/22 188/1/22
f 189/1/23 185/1/21 186/1/21
f 185/1/21 189/1/23 190/1/23
f 191/1/24 188/1/22 187/1/22
f 188/1/22 191/1/24 192/1/24
f 191/1/24 193/1/25 192/1/24
f 193/1/25 191/1/24 194/1/25
f 194/1/25 195/1/26 193/1/25
f 195/1/26 194/1/25 196/1/26
f 196/1/26 197/1/27 195/1/26
f 197/1/27 196/1/26 198/1/27
f 189/1/6 72/1/6 190/1/6
f 72/1/6 189/1/6 58/1/6
f 196/1/1 72/1/1 198/1/1
f 72/1/1 196/1/1 71/1/1
f 71/1/1 196/1/1 194/1/1
f 71/1/1 194/1/1 191/1/1
f 71/1/1 191/1/1 187/1/1
f 71/1/1 187/1/1 185/1/1
f 60/1/5 197/1/5 58/1/5
f 197/1/5 60/1/5 195/1/5
f 195/1/5 60/1/5 193/1/5
f 193/1/5 60/1/5 192/1/5
f 192/1/5 60/1/5 188/1/5
f 188/1/5 60/1/5 186/1/5
f 197/1/3 72/1/3 58/1/3
f 72/1/3 197/1/3 198/1/3
f 201/1/29 200/1/28 199/1/28
f 200/1/28 201/1/29 202/1/29
f 203/1/30 199/1/28 200/1/28
f 199/1/28 203/1/30 204/1/30
f 176/1/31 204/1/30 203/1/30
f 204/1/30 176/1/31 175/1/31
f 201/1/29 205/1/32 202/1/29
f 205/1/32 201/1/29 206/1/32
f 206/1/32 207/1/33 205/1/32
f 207/1/33 206/1/32 208/1/33
f 208/1/33 209/1/34 207/1/33
f 209/1/34 208/1/33 210/1/34
f 209/1/2 170/1/2 155/1/2
f 170/1/2 209/1/2 210/1/2
f 170/1/6 176/1/6 155/1/6
f 176/1/6 170/1/6 175/1/6
f 203/1/1 155/1/1 176/1/1
f 155/1/1 203/1/1 200/1/1
f 155/1/1 200/1/1 202/1/1
f 155/1/1 202/1/1 205/1/1
f 155/1/1 205/1/1 207/1/1
f 155/1/1 207/1/1 209/1/1
f 170/1/5 204/1/5 175/1/5
f 204/1/5 170/1/5 199/1/5
f 199/1/5 170/1/5 201/1/5
f 201/1/5 170/1/5 206/1/5
f 206/1/5 170/1/5 208/1/5
f 208/1/5 170/1/5 210/1/5
f 213/1/3 212/1/3 211/1/3
f 212/1/3 213/1/3 214/1/3
f 197/1/5 213/1/5 211/1/5
f 198/1/1 212/1/1 214/1/1
f 197/1/6 212/1/6 198/1/6
f 212/1/6 197/1/6 211/1/6
f 213/1/24 198/1/24 214/1/24
f 198/1/24 213/1/24 197/1/24
f 217/1/6 216/1/6 215/1/6
f 216/1/6 217/1/6 218/1/6
f 219/1/5 218/1/5 217/1/5
f 218/1/29 220/1/29 216/1/29
f 220/1/29 218/1/29 219/1/29
f 220/1/1 215/1/1 216/1/1
f 220/1/2 217/1/2 215/1/2
f 217/1/2 220/1/2 219/1/2
f 211/1/3 83/1/3 75/1/3
f 83/1/3 211/1/3 212/1/3
f 211/1/4 198/1/4 212/1/4
f 198/1/4 211/1/4 197/1/4
f 198/1/1 83/1/1 212/1/1
f 83/1/1 198/1/1 72/1/1
f 58/1/5 211/1/5 75/1/5
f 211/1/5 58/1/5 197/1/5
f 58/1/6 83/1/6 72/1/6
f 83/1/6 58/1/6 75/1/6
f 198/1/2 58/1/2 72/1/2
f 58/1/2 198/1/2 197/1/2
f 223/1/3 222/1/3 221/1/3
f 222/1/3 223/1/3 224/1/3
f 223/1/4 225/1/4 224/1/4
f 225/1/4 223/1/4 226/1/4
f 225/1/1 222/1/1 224/1/1
f 222/1/1 225/1/1 227/1/1
f 228/1/5 223/1/5 221/1/5
f 223/1/5 228/1/5 226/1/5
f 228/1/6 222/1/6 227/1/6
f 222/1/6 228/1/6 221/1/6
f 225/1/2 228/1/2 227/1/2
f 228/1/2 225/1/2 226/1/2
f 231/1/3 230/1/3 229/1/3
f 230/1/3 231/1/3 232/1/3
f 231/1/4 214/1/4 232/1/4
f 214/1/4 231/1/4 213/1/4
f 214/1/1 230/1/1 232/1/1
f 230/1/1 214/1/1 212/1/1
f 211/1/5 231/1/5 229/1/5
f 231/1/5 211/1/5 213/1/5
f 211/1/6 230/1/6 212/1/6
f 230/1/6 211/1/6 229/1/6
f 214/1/2 211/1/2 212/1/2
f 211/1/2 214/1/2 213/1/2
f 235/1/3 234/1/3 233/1/3
f 234/1/3 235/1/3 236/1/3
f 235/1/4 237/1/4 236/1/4
f 237/1/4 235/1/4 238/1/4
f 237/1/1 234/1/1 236/1/1
f 234/1/1 237/1/1 239/1/1
f 240/1/5 235/1/5 233/1/5
f 235/1/5 240/1/5 238/1/5
f 240/1/6 234/1/6 239/1/6
f 234/1/6 240/1/6 233/1/6
f 237/1/2 240/1/2 239/1/2
f 240/1/2 237/1/2 238/1/2
f 243/1/3 242/1/3 241/1/3
f 242/1/3 243/1/3 244/1/3
f 243/1/4 245/1/4 244/1/4
f 245/1/4 243/1/4 246/1/4
f 245/1/1 242/1/1 244/1/1
f 242/1/1 245/1/1 224/1/1
f 223/1/5 243/1/5 241/1/5
f 243/1/5 223/1/5 246/1/5
f 223/1/6 242/1/6 224/1/6
f 242/1/6 223/1/6 241/1/6
f 245/1/2 223/1/2 224/1/2
f 223/1/2 245/1/2 246/1/2
f 249/1/3 248/1/3 247/1/3
f 248/1/3 249/1/3 250/1/3
f 249/1/4 251/1/4 250/1/4
f 251/1/4 249/1/4 252/1/4
f 251/1/1 248/1/1 250/1/1
f 248/1/1 251/1/1 253/1/1
f 254/1/5 249/1/5 247/1/5
f 249/1/5 254/1/5 252/1/5
f 254/1/6 248/1/6 253/1/6
f 248/1/6 254/1/6 247/1/6
f 251/1/2 254/1/2 253/1/2
f 254/1/2 251/1/2 252/1/2
f 257/1/3 256/1/3 255/1/3
f 256/1/3 257/1/3 258/1/3
f 257/1/4 259/1/4 258/1/4
f 259/1/4 257/1/4 260/1/4
f 259/1/1 256/1/1 258/1/1
f 256/1/1 259/1/1 261/1/1
f 262/1/5 257/1/5 255/1/5
f 257/1/5 262/1/5 260/1/5
f 262/1/6 256/1/6 261/1/6
f 256/1/6 262/1/6 255/1/6
f 259/1/2 262/1/2 261/1/2
f 262/1/2 259/1/2 260/1/2
f 265/1/3 264/1/3 263/1/3
f 264/1/3 265/1/3 266/1/3
f 265/1/4 267/1/4 266/1/4
f 267/1/4 265/1/4 268/1/4
f 267/1/1 264/1/1 266/1/1
f 264/1/1 267/1/1 269/1/1
f 270/1/5 265/1/5 263/1/5
f 265/1/5 270/1/5 268/1/5
f 270/1/6 264/1/6 269/1/6
f 264/1/6 270/1/6 263/1/6
f 267/1/2 270/1/2 269/1/2
f 270/1/2 267/1/2 268/1/2
f 273/1/3 272/1/3 271/1/3
f 272/1/3 273/1/3 274/1/3
f 273/1/4 275/1/4 274/1/4
f 275/1/4 273/1/4 276/1/4
f 275/1/1 272/1/1 274/1/1
f 272/1/1 275/1/1 277/1/1
f 278/1/5 273/1/5 271/1/5
f 273/1/5 278/1/5 276/1/5
f 278/1/6 272/1/6 277/1/6
f 272/1/6 278/1/6 271/1/6
f 275/1/2 278/1/2 277/1/2
f 278/1/2 275/1/2 276/1/2
f 281/1/3 280/1/3 279/1/3
f 280/1/3 281/1/3 282/1/3
f 281/1/4 272/1/4 282/1/4
f 272/1/4 281/1/4 271/1/4
f 272/1/1 280/1/1 282/1/1
f 280/1/1 272/1/1 283/1/1
f 284/1/5 281/1/5 279/1/5
f 281/1/5 284/1/5 271/1/5
f 284/1/6 280/1/6 283/1/6
f 280/1/6 284/1/6 279/1/6
f 272/1/2 284/1/2 283/1/2
f 284/1/2 272/1/2 271/1/2
f 287/1/3 286/1/3 285/1/3
f 286/1/3 287/1/3 288/1/3
f 287/1/4 289/1/4 288/1/4
f 289/1/4 287/1/4 290/1/4
f 289/1/1 286/1/1 288/1/1
f 286/1/1 289/1/1 291/1/1
f 292/1/5 287/1/5 285/1/5
f 287/1/5 292/1/5 290/1/5
f 292/1/6 286/1/6 291/1/6
f 286/1/6 292/1/6 285/1/6
f 289/1/2 292/1/2 291/1/2
f 292/1/2 289/1/2 290/1/2
f 210/1/3 155/1/3 170/1/3
f 155/1/3 210/1/3 209/1/3
f 210/1/4 286/1/4 209/1/4
f 286/1/4 210/1/4 285/1/4
f 286/1/1 155/1/1 209/1/1
f 155/1/1 286/1/1 149/1/1
f 152/1/5 210/1/5 170/1/5
f 210/1/5 152/1/5 285/1/5
f 152/1/6 155/1/6 149/1/6
f 155/1/6 152/1/6 170/1/6
f 286/1/2 172/1/2 171/1/2
f 172/1/2 286/1/2 285/1/2

