# Created by Kenney (www.kenney.nl)

mtllib beermug.mtl

v 4 2 2
v 4 2 -2
v 3 2 2
v 3 2 -2
v 3 5 -2
v 3 5 2
v 4 5 -2
v 4 5 2
v 3 2 2.5
v 3 2 -2.5
v 2 2 2.5
v 2 2 -2.5
v 2 5 -2.5
v 2 5 2.5
v 3 5 -2.5
v 3 5 2.5
v 2 2 3
v 2 2 -3
v 1 2 3
v 1 2 -3
v 1 5 -3
v 1 5 3
v 2 5 -3
v 2 5 3
v 1 2 3.5
v 1 2 -3.5
v -1 2 3.5
v -1 2 -3.5
v -1 5 -3.5
v -1 5 3.5
v 1 5 -3.5
v 1 5 3.5
v -1 2 3
v -1 2 -3
v -2 2 3
v -2 2 -3
v -2 5 -3
v -2 5 3
v -1 5 -3
v -1 5 3
v -2 2 2.5
v -2 2 -2.5
v -3 2 2.5
v -3 2 -2.5
v -3 5 -2.5
v -3 5 2.5
v -2 5 -2.5
v -2 5 2.5
v -3 2 2
v -3 2 -2
v -4 2 2
v -4 2 -2
v -4 5 -2
v -4 5 2
v -3 5 -2
v -3 5 2
v -4 4 0.5
v -4 4 -0.5
v -8 4 0.5
v -8 4 -0.5
v -8 5 -0.5
v -8 5 0.5
v -4 5 -0.5
v -4 5 0.5
v 4 4 2
v 4 4 -2
v 3 4 2
v 3 4 -2
v -7 -3 0.5
v -7 -3 -0.5
v -8 -3 0.5
v -8 -3 -0.5
v -7 4 -0.5
v -7 4 0.5
v 5 -4 1.5
v 5 -4 -1.5
v 4 -4 1.5
v 4 -4 -1.5
v 4 0 -1.5
v 4 0 1.5
v 5 0 -1.5
v 5 0 1.5
v 4 -4 2
v 4 -4 -2
v 3 -4 2
v 3 -4 -2
v 3 0 -2
v 3 0 2
v 4 0 -2
v 4 0 2
v 3 -4 2.5
v 3 -4 -2.5
v 2 -4 2.5
v 2 -4 -2.5
v 2 0 -2.5
v 2 0 2.5
v 3 0 -2.5
v 3 0 2.5
v 2 -4 3
v 2 -4 -3
v 1 -4 3
v 1 -4 -3
v 1 0 -3
v 1 0 3
v 2 0 -3
v 2 0 3
v 1 -4 3.5
v 1 -4 -3.5
v -1 -4 3.5
v -1 -4 -3.5
v -1 0 -3.5
v -1 0 3.5
v 1 0 -3.5
v 1 0 3.5
v -1 -4 3
v -1 -4 -3
v -2 -4 3
v -2 -4 -3
v -2 0 -3
v -2 0 3
v -1 0 -3
v -1 0 3
v -2 -4 2.5
v -2 -4 -2.5
v -3 -4 2.5
v -3 -4 -2.5
v -3 0 -2.5
v -3 0 2.5
v -2 0 -2.5
v -2 0 2.5
v -3 -4 2
v -3 -4 -2
v -4 -4 2
v -4 -4 -2
v -4 0 -2
v -4 0 2
v -3 0 -2
v -3 0 2
v -4 -4 1.5
v -4 -4 -1.5
v -5 -4 1.5
v -5 -4 -1.5
v -5 0 -1.5
v -5 0 1.5
v -4 0 -1.5
v -4 0 1.5
v -5 -3 0.5
v -5 -3 -0.5
v -7 -2 -0.5
v -7 -2 0.5
v -5 -2 -0.5
v -5 -2 0.5
v 5 -7 1.5
v 5 -7 -1.5
v 4 -7 1.5
v 4 -7 -1.5
v 4 -6 -1.5
v 4 -6 1.5
v 5 -6 -1.5
v 5 -6 1.5
v 4 -7 2
v 4 -7 -2
v 3 -7 2
v 3 -7 -2
v 3 -6 -2
v 3 -6 2
v 4 -6 -2
v 4 -6 2
v 3 -7 2.5
v 3 -7 -2.5
v 2 -7 2.5
v 2 -7 -2.5
v 2 -6 -2.5
v 2 -6 2.5
v 3 -6 -2.5
v 3 -6 2.5
v 2 -7 3
v 2 -7 -3
v 1 -7 3
v 1 -7 -3
v 1 -6 -3
v 1 -6 3
v 2 -6 -3
v 2 -6 3
v 1 -7 3.5
v 1 -7 -3.5
v -1 -7 3.5
v -1 -7 -3.5
v -1 -6 -3.5
v -1 -6 3.5
v 1 -6 -3.5
v 1 -6 3.5
v -1 -7 3
v -1 -7 -3
v -2 -7 3
v -2 -7 -3
v -2 -6 -3
v -2 -6 3
v -1 -6 -3
v -1 -6 3
v -2 -7 2.5
v -2 -7 -2.5
v -3 -7 2.5
v -3 -7 -2.5
v -3 -6 -2.5
v -3 -6 2.5
v -2 -6 -2.5
v -2 -6 2.5
v -3 -7 2
v -3 -7 -2
v -4 -7 2
v -4 -7 -2
v -4 -6 -2
v -4 -6 2
v -3 -6 -2
v -3 -6 2
v -4 -7 1.5
v -4 -7 -1.5
v -5 -7 1.5
v -5 -7 -1.5
v -5 -6 -1.5
v -5 -6 1.5
v -4 -6 -1.5
v -4 -6 1.5
v 4 2 -1.5
v 4 2 1.5
v 5 2 -1.5
v 5 2 1.5
v -5 2 -1.5
v -5 2 1.5
v -4 2 -1.5
v -4 2 1.5

vn 0 -1 0
vn -1 0 0
vn 0 0 -1
vn 0 0 1
vn 1 0 0
vn 0 1 0

vt 0 0

usemtl color2

f 3/1/1 2/1/1 1/1/1
f 2/1/1 3/1/1 4/1/1
f 3/1/2 5/1/2 4/1/2
f 5/1/2 3/1/2 6/1/2
f 5/1/3 2/1/3 4/1/3
f 2/1/3 5/1/3 7/1/3
f 8/1/4 3/1/4 1/1/4
f 3/1/4 8/1/4 6/1/4
f 8/1/5 2/1/5 7/1/5
f 2/1/5 8/1/5 1/1/5
f 5/1/6 8/1/6 7/1/6
f 8/1/6 5/1/6 6/1/6
f 11/1/1 10/1/1 9/1/1
f 10/1/1 11/1/1 12/1/1
f 11/1/2 13/1/2 12/1/2
f 13/1/2 11/1/2 14/1/2
f 13/1/3 10/1/3 12/1/3
f 10/1/3 13/1/3 15/1/3
f 16/1/4 11/1/4 9/1/4
f 11/1/4 16/1/4 14/1/4
f 16/1/5 10/1/5 15/1/5
f 10/1/5 16/1/5 9/1/5
f 13/1/6 16/1/6 15/1/6
f 16/1/6 13/1/6 14/1/6
f 19/1/1 18/1/1 17/1/1
f 18/1/1 19/1/1 20/1/1
f 19/1/2 21/1/2 20/1/2
f 21/1/2 19/1/2 22/1/2
f 21/1/3 18/1/3 20/1/3
f 18/1/3 21/1/3 23/1/3
f 24/1/4 19/1/4 17/1/4
f 19/1/4 24/1/4 22/1/4
f 24/1/5 18/1/5 23/1/5
f 18/1/5 24/1/5 17/1/5
f 21/1/6 24/1/6 23/1/6
f 24/1/6 21/1/6 22/1/6
f 27/1/1 26/1/1 25/1/1
f 26/1/1 27/1/1 28/1/1
f 27/1/2 29/1/2 28/1/2
f 29/1/2 27/1/2 30/1/2
f 29/1/3 26/1/3 28/1/3
f 26/1/3 29/1/3 31/1/3
f 32/1/4 27/1/4 25/1/4
f 27/1/4 32/1/4 30/1/4
f 32/1/5 26/1/5 31/1/5
f 26/1/5 32/1/5 25/1/5
f 29/1/6 32/1/6 31/1/6
f 32/1/6 29/1/6 30/1/6
f 35/1/1 34/1/1 33/1/1
f 34/1/1 35/1/1 36/1/1
f 35/1/2 37/1/2 36/1/2
f 37/1/2 35/1/2 38/1/2
f 37/1/3 34/1/3 36/1/3
f 34/1/3 37/1/3 39/1/3
f 40/1/4 35/1/4 33/1/4
f 35/1/4 40/1/4 38/1/4
f 40/1/5 34/1/5 39/1/5
f 34/1/5 40/1/5 33/1/5
f 37/1/6 40/1/6 39/1/6
f 40/1/6 37/1/6 38/1/6
f 43/1/1 42/1/1 41/1/1
f 42/1/1 43/1/1 44/1/1
f 43/1/2 45/1/2 44/1/2
f 45/1/2 43/1/2 46/1/2
f 45/1/3 42/1/3 44/1/3
f 42/1/3 45/1/3 47/1/3
f 48/1/4 43/1/4 41/1/4
f 43/1/4 48/1/4 46/1/4
f 48/1/5 42/1/5 47/1/5
f 42/1/5 48/1/5 41/1/5
f 45/1/6 48/1/6 47/1/6
f 48/1/6 45/1/6 46/1/6
f 51/1/1 50/1/1 49/1/1
f 50/1/1 51/1/1 52/1/1
f 51/1/2 53/1/2 52/1/2
f 53/1/2 51/1/2 54/1/2
f 53/1/3 50/1/3 52/1/3
f 50/1/3 53/1/3 55/1/3
f 56/1/4 51/1/4 49/1/4
f 51/1/4 56/1/4 54/1/4
f 56/1/5 50/1/5 55/1/5
f 50/1/5 56/1/5 49/1/5
f 53/1/6 56/1/6 55/1/6
f 56/1/6 53/1/6 54/1/6
f 59/1/1 58/1/1 57/1/1
f 58/1/1 59/1/1 60/1/1
f 59/1/2 61/1/2 60/1/2
f 61/1/2 59/1/2 62/1/2
f 61/1/3 58/1/3 60/1/3
f 58/1/3 61/1/3 63/1/3
f 64/1/4 59/1/4 57/1/4
f 59/1/4 64/1/4 62/1/4
f 64/1/5 58/1/5 63/1/5
f 58/1/5 64/1/5 57/1/5
f 61/1/6 64/1/6 63/1/6
f 64/1/6 61/1/6 62/1/6
f 67/1/1 66/1/1 65/1/1
f 66/1/1 67/1/1 68/1/1
f 67/1/2 5/1/2 68/1/2
f 5/1/2 67/1/2 6/1/2
f 5/1/3 66/1/3 68/1/3
f 66/1/3 5/1/3 7/1/3
f 8/1/4 67/1/4 65/1/4
f 67/1/4 8/1/4 6/1/4
f 8/1/5 66/1/5 7/1/5
f 66/1/5 8/1/5 65/1/5
f 5/1/6 8/1/6 7/1/6
f 8/1/6 5/1/6 6/1/6
f 59/1/1 58/1/1 57/1/1
f 58/1/1 59/1/1 60/1/1
f 59/1/2 61/1/2 60/1/2
f 61/1/2 59/1/2 62/1/2
f 61/1/3 58/1/3 60/1/3
f 58/1/3 61/1/3 63/1/3
f 64/1/4 59/1/4 57/1/4
f 59/1/4 64/1/4 62/1/4
f 64/1/5 58/1/5 63/1/5
f 58/1/5 64/1/5 57/1/5
f 61/1/6 64/1/6 63/1/6
f 64/1/6 61/1/6 62/1/6
f 71/1/1 70/1/1 69/1/1
f 70/1/1 71/1/1 72/1/1
f 71/1/2 60/1/2 72/1/2
f 60/1/2 71/1/2 59/1/2
f 60/1/3 70/1/3 72/1/3
f 70/1/3 60/1/3 73/1/3
f 74/1/4 71/1/4 69/1/4
f 71/1/4 74/1/4 59/1/4
f 74/1/5 70/1/5 73/1/5
f 70/1/5 74/1/5 69/1/5
f 60/1/6 74/1/6 73/1/6
f 74/1/6 60/1/6 59/1/6
f 77/1/1 76/1/1 75/1/1
f 76/1/1 77/1/1 78/1/1
f 77/1/2 79/1/2 78/1/2
f 79/1/2 77/1/2 80/1/2
f 79/1/3 76/1/3 78/1/3
f 76/1/3 79/1/3 81/1/3
f 82/1/4 77/1/4 75/1/4
f 77/1/4 82/1/4 80/1/4
f 82/1/5 76/1/5 81/1/5
f 76/1/5 82/1/5 75/1/5
f 79/1/6 82/1/6 81/1/6
f 82/1/6 79/1/6 80/1/6
f 85/1/1 84/1/1 83/1/1
f 84/1/1 85/1/1 86/1/1
f 85/1/2 87/1/2 86/1/2
f 87/1/2 85/1/2 88/1/2
f 87/1/3 84/1/3 86/1/3
f 84/1/3 87/1/3 89/1/3
f 90/1/4 85/1/4 83/1/4
f 85/1/4 90/1/4 88/1/4
f 90/1/5 84/1/5 89/1/5
f 84/1/5 90/1/5 83/1/5
f 87/1/6 90/1/6 89/1/6
f 90/1/6 87/1/6 88/1/6
f 93/1/1 92/1/1 91/1/1
f 92/1/1 93/1/1 94/1/1
f 93/1/2 95/1/2 94/1/2
f 95/1/2 93/1/2 96/1/2
f 95/1/3 92/1/3 94/1/3
f 92/1/3 95/1/3 97/1/3
f 98/1/4 93/1/4 91/1/4
f 93/1/4 98/1/4 96/1/4
f 98/1/5 92/1/5 97/1/5
f 92/1/5 98/1/5 91/1/5
f 95/1/6 98/1/6 97/1/6
f 98/1/6 95/1/6 96/1/6
f 101/1/1 100/1/1 99/1/1
f 100/1/1 101/1/1 102/1/1
f 101/1/2 103/1/2 102/1/2
f 103/1/2 101/1/2 104/1/2
f 103/1/3 100/1/3 102/1/3
f 100/1/3 103/1/3 105/1/3
f 106/1/4 101/1/4 99/1/4
f 101/1/4 106/1/4 104/1/4
f 106/1/5 100/1/5 105/1/5
f 100/1/5 106/1/5 99/1/5
f 103/1/6 106/1/6 105/1/6
f 106/1/6 103/1/6 104/1/6
f 109/1/1 108/1/1 107/1/1
f 108/1/1 109/1/1 110/1/1
f 109/1/2 111/1/2 110/1/2
f 111/1/2 109/1/2 112/1/2
f 111/1/3 108/1/3 110/1/3
f 108/1/3 111/1/3 113/1/3
f 114/1/4 109/1/4 107/1/4
f 109/1/4 114/1/4 112/1/4
f 114/1/5 108/1/5 113/1/5
f 108/1/5 114/1/5 107/1/5
f 111/1/6 114/1/6 113/1/6
f 114/1/6 111/1/6 112/1/6
f 117/1/1 116/1/1 115/1/1
f 116/1/1 117/1/1 118/1/1
f 117/1/2 119/1/2 118/1/2
f 119/1/2 117/1/2 120/1/2
f 119/1/3 116/1/3 118/1/3
f 116/1/3 119/1/3 121/1/3
f 122/1/4 117/1/4 115/1/4
f 117/1/4 122/1/4 120/1/4
f 122/1/5 116/1/5 121/1/5
f 116/1/5 122/1/5 115/1/5
f 119/1/6 122/1/6 121/1/6
f 122/1/6 119/1/6 120/1/6
f 125/1/1 124/1/1 123/1/1
f 124/1/1 125/1/1 126/1/1
f 125/1/2 127/1/2 126/1/2
f 127/1/2 125/1/2 128/1/2
f 127/1/3 124/1/3 126/1/3
f 124/1/3 127/1/3 129/1/3
f 130/1/4 125/1/4 123/1/4
f 125/1/4 130/1/4 128/1/4
f 130/1/5 124/1/5 129/1/5
f 124/1/5 130/1/5 123/1/5
f 127/1/6 130/1/6 129/1/6
f 130/1/6 127/1/6 128/1/6
f 133/1/1 132/1/1 131/1/1
f 132/1/1 133/1/1 134/1/1
f 133/1/2 135/1/2 134/1/2
f 135/1/2 133/1/2 136/1/2
f 135/1/3 132/1/3 134/1/3
f 132/1/3 135/1/3 137/1/3
f 138/1/4 133/1/4 131/1/4
f 133/1/4 138/1/4 136/1/4
f 138/1/5 132/1/5 137/1/5
f 132/1/5 138/1/5 131/1/5
f 135/1/6 138/1/6 137/1/6
f 138/1/6 135/1/6 136/1/6
f 141/1/1 140/1/1 139/1/1
f 140/1/1 141/1/1 142/1/1
f 141/1/2 143/1/2 142/1/2
f 143/1/2 141/1/2 144/1/2
f 143/1/3 140/1/3 142/1/3
f 140/1/3 143/1/3 145/1/3
f 146/1/4 141/1/4 139/1/4
f 141/1/4 146/1/4 144/1/4
f 146/1/5 140/1/5 145/1/5
f 140/1/5 146/1/5 139/1/5
f 143/1/6 146/1/6 145/1/6
f 146/1/6 143/1/6 144/1/6
f 69/1/1 148/1/1 147/1/1
f 148/1/1 69/1/1 70/1/1
f 69/1/2 149/1/2 70/1/2
f 149/1/2 69/1/2 150/1/2
f 149/1/3 148/1/3 70/1/3
f 148/1/3 149/1/3 151/1/3
f 152/1/4 69/1/4 147/1/4
f 69/1/4 152/1/4 150/1/4
f 152/1/5 148/1/5 151/1/5
f 148/1/5 152/1/5 147/1/5
f 149/1/6 152/1/6 151/1/6
f 152/1/6 149/1/6 150/1/6
f 155/1/1 154/1/1 153/1/1
f 154/1/1 155/1/1 156/1/1
f 155/1/2 157/1/2 156/1/2
f 157/1/2 155/1/2 158/1/2
f 157/1/3 154/1/3 156/1/3
f 154/1/3 157/1/3 159/1/3
f 160/1/4 155/1/4 153/1/4
f 155/1/4 160/1/4 158/1/4
f 160/1/5 154/1/5 159/1/5
f 154/1/5 160/1/5 153/1/5
f 157/1/6 160/1/6 159/1/6
f 160/1/6 157/1/6 158/1/6
f 163/1/1 162/1/1 161/1/1
f 162/1/1 163/1/1 164/1/1
f 163/1/2 165/1/2 164/1/2
f 165/1/2 163/1/2 166/1/2
f 165/1/3 162/1/3 164/1/3
f 162/1/3 165/1/3 167/1/3
f 168/1/4 163/1/4 161/1/4
f 163/1/4 168/1/4 166/1/4
f 168/1/5 162/1/5 167/1/5
f 162/1/5 168/1/5 161/1/5
f 165/1/6 168/1/6 167/1/6
f 168/1/6 165/1/6 166/1/6
f 171/1/1 170/1/1 169/1/1
f 170/1/1 171/1/1 172/1/1
f 171/1/2 173/1/2 172/1/2
f 173/1/2 171/1/2 174/1/2
f 173/1/3 170/1/3 172/1/3
f 170/1/3 173/1/3 175/1/3
f 176/1/4 171/1/4 169/1/4
f 171/1/4 176/1/4 174/1/4
f 176/1/5 170/1/5 175/1/5
f 170/1/5 176/1/5 169/1/5
f 173/1/6 176/1/6 175/1/6
f 176/1/6 173/1/6 174/1/6
f 179/1/1 178/1/1 177/1/1
f 178/1/1 179/1/1 180/1/1
f 179/1/2 181/1/2 180/1/2
f 181/1/2 179/1/2 182/1/2
f 181/1/3 178/1/3 180/1/3
f 178/1/3 181/1/3 183/1/3
f 184/1/4 179/1/4 177/1/4
f 179/1/4 184/1/4 182/1/4
f 184/1/5 178/1/5 183/1/5
f 178/1/5 184/1/5 177/1/5
f 181/1/6 184/1/6 183/1/6
f 184/1/6 181/1/6 182/1/6
f 187/1/1 186/1/1 185/1/1
f 186/1/1 187/1/1 188/1/1
f 187/1/2 189/1/2 188/1/2
f 189/1/2 187/1/2 190/1/2
f 189/1/3 186/1/3 188/1/3
f 186/1/3 189/1/3 191/1/3
f 192/1/4 187/1/4 185/1/4
f 187/1/4 192/1/4 190/1/4
f 192/1/5 186/1/5 191/1/5
f 186/1/5 192/1/5 185/1/5
f 189/1/6 192/1/6 191/1/6
f 192/1/6 189/1/6 190/1/6
f 195/1/1 194/1/1 193/1/1
f 194/1/1 195/1/1 196/1/1
f 195/1/2 197/1/2 196/1/2
f 197/1/2 195/1/2 198/1/2
f 197/1/3 194/1/3 196/1/3
f 194/1/3 197/1/3 199/1/3
f 200/1/4 195/1/4 193/1/4
f 195/1/4 200/1/4 198/1/4
f 200/1/5 194/1/5 199/1/5
f 194/1/5 200/1/5 193/1/5
f 197/1/6 200/1/6 199/1/6
f 200/1/6 197/1/6 198/1/6
f 203/1/1 202/1/1 201/1/1
f 202/1/1 203/1/1 204/1/1
f 203/1/2 205/1/2 204/1/2
f 205/1/2 203/1/2 206/1/2
f 205/1/3 202/1/3 204/1/3
f 202/1/3 205/1/3 207/1/3
f 208/1/4 203/1/4 201/1/4
f 203/1/4 208/1/4 206/1/4
f 208/1/5 202/1/5 207/1/5
f 202/1/5 208/1/5 201/1/5
f 205/1/6 208/1/6 207/1/6
f 208/1/6 205/1/6 206/1/6
f 211/1/1 210/1/1 209/1/1
f 210/1/1 211/1/1 212/1/1
f 211/1/2 213/1/2 212/1/2
f 213/1/2 211/1/2 214/1/2
f 213/1/3 210/1/3 212/1/3
f 210/1/3 213/1/3 215/1/3
f 216/1/4 211/1/4 209/1/4
f 211/1/4 216/1/4 214/1/4
f 216/1/5 210/1/5 215/1/5
f 210/1/5 216/1/5 209/1/5
f 213/1/6 216/1/6 215/1/6
f 216/1/6 213/1/6 214/1/6
f 219/1/1 218/1/1 217/1/1
f 218/1/1 219/1/1 220/1/1
f 219/1/2 221/1/2 220/1/2
f 221/1/2 219/1/2 222/1/2
f 221/1/3 218/1/3 220/1/3
f 218/1/3 221/1/3 223/1/3
f 224/1/4 219/1/4 217/1/4
f 219/1/4 224/1/4 222/1/4
f 224/1/5 218/1/5 223/1/5
f 218/1/5 224/1/5 217/1/5
f 221/1/6 224/1/6 223/1/6
f 224/1/6 221/1/6 222/1/6

usemtl color14

f 80/1/1 81/1/1 82/1/1
f 81/1/1 80/1/1 79/1/1
f 80/1/2 225/1/2 79/1/2
f 225/1/2 80/1/2 226/1/2
f 225/1/3 81/1/3 79/1/3
f 81/1/3 225/1/3 227/1/3
f 228/1/4 80/1/4 82/1/4
f 80/1/4 228/1/4 226/1/4
f 228/1/5 81/1/5 227/1/5
f 81/1/5 228/1/5 82/1/5
f 225/1/6 228/1/6 227/1/6
f 228/1/6 225/1/6 226/1/6
f 88/1/1 89/1/1 90/1/1
f 89/1/1 88/1/1 87/1/1
f 88/1/2 4/1/2 87/1/2
f 4/1/2 88/1/2 3/1/2
f 4/1/3 89/1/3 87/1/3
f 89/1/3 4/1/3 2/1/3
f 1/1/4 88/1/4 90/1/4
f 88/1/4 1/1/4 3/1/4
f 1/1/5 89/1/5 2/1/5
f 89/1/5 1/1/5 90/1/5
f 4/1/6 1/1/6 2/1/6
f 1/1/6 4/1/6 3/1/6
f 96/1/1 97/1/1 98/1/1
f 97/1/1 96/1/1 95/1/1
f 96/1/2 12/1/2 95/1/2
f 12/1/2 96/1/2 11/1/2
f 12/1/3 97/1/3 95/1/3
f 97/1/3 12/1/3 10/1/3
f 9/1/4 96/1/4 98/1/4
f 96/1/4 9/1/4 11/1/4
f 9/1/5 97/1/5 10/1/5
f 97/1/5 9/1/5 98/1/5
f 12/1/6 9/1/6 10/1/6
f 9/1/6 12/1/6 11/1/6
f 104/1/1 105/1/1 106/1/1
f 105/1/1 104/1/1 103/1/1
f 104/1/2 20/1/2 103/1/2
f 20/1/2 104/1/2 19/1/2
f 20/1/3 105/1/3 103/1/3
f 105/1/3 20/1/3 18/1/3
f 17/1/4 104/1/4 106/1/4
f 104/1/4 17/1/4 19/1/4
f 17/1/5 105/1/5 18/1/5
f 105/1/5 17/1/5 106/1/5
f 20/1/6 17/1/6 18/1/6
f 17/1/6 20/1/6 19/1/6
f 112/1/1 113/1/1 114/1/1
f 113/1/1 112/1/1 111/1/1
f 112/1/2 28/1/2 111/1/2
f 28/1/2 112/1/2 27/1/2
f 28/1/3 113/1/3 111/1/3
f 113/1/3 28/1/3 26/1/3
f 25/1/4 112/1/4 114/1/4
f 112/1/4 25/1/4 27/1/4
f 25/1/5 113/1/5 26/1/5
f 113/1/5 25/1/5 114/1/5
f 28/1/6 25/1/6 26/1/6
f 25/1/6 28/1/6 27/1/6
f 120/1/1 121/1/1 122/1/1
f 121/1/1 120/1/1 119/1/1
f 120/1/2 36/1/2 119/1/2
f 36/1/2 120/1/2 35/1/2
f 36/1/3 121/1/3 119/1/3
f 121/1/3 36/1/3 34/1/3
f 33/1/4 120/1/4 122/1/4
f 120/1/4 33/1/4 35/1/4
f 33/1/5 121/1/5 34/1/5
f 121/1/5 33/1/5 122/1/5
f 36/1/6 33/1/6 34/1/6
f 33/1/6 36/1/6 35/1/6
f 128/1/1 129/1/1 130/1/1
f 129/1/1 128/1/1 127/1/1
f 128/1/2 44/1/2 127/1/2
f 44/1/2 128/1/2 43/1/2
f 44/1/3 129/1/3 127/1/3
f 129/1/3 44/1/3 42/1/3
f 41/1/4 128/1/4 130/1/4
f 128/1/4 41/1/4 43/1/4
f 41/1/5 129/1/5 42/1/5
f 129/1/5 41/1/5 130/1/5
f 44/1/6 41/1/6 42/1/6
f 41/1/6 44/1/6 43/1/6
f 136/1/1 137/1/1 138/1/1
f 137/1/1 136/1/1 135/1/1
f 136/1/2 52/1/2 135/1/2
f 52/1/2 136/1/2 51/1/2
f 52/1/3 137/1/3 135/1/3
f 137/1/3 52/1/3 50/1/3
f 49/1/4 136/1/4 138/1/4
f 136/1/4 49/1/4 51/1/4
f 49/1/5 137/1/5 50/1/5
f 137/1/5 49/1/5 138/1/5
f 52/1/6 49/1/6 50/1/6
f 49/1/6 52/1/6 51/1/6
f 144/1/1 145/1/1 146/1/1
f 145/1/1 144/1/1 143/1/1
f 144/1/2 229/1/2 143/1/2
f 229/1/2 144/1/2 230/1/2
f 229/1/3 145/1/3 143/1/3
f 145/1/3 229/1/3 231/1/3
f 232/1/4 144/1/4 146/1/4
f 144/1/4 232/1/4 230/1/4
f 232/1/5 145/1/5 231/1/5
f 145/1/5 232/1/5 146/1/5
f 229/1/6 232/1/6 231/1/6
f 232/1/6 229/1/6 230/1/6
f 158/1/1 159/1/1 160/1/1
f 159/1/1 158/1/1 157/1/1
f 158/1/2 78/1/2 157/1/2
f 78/1/2 158/1/2 77/1/2
f 78/1/3 159/1/3 157/1/3
f 159/1/3 78/1/3 76/1/3
f 75/1/4 158/1/4 160/1/4
f 158/1/4 75/1/4 77/1/4
f 75/1/5 159/1/5 76/1/5
f 159/1/5 75/1/5 160/1/5
f 78/1/6 75/1/6 76/1/6
f 75/1/6 78/1/6 77/1/6
f 166/1/1 167/1/1 168/1/1
f 167/1/1 166/1/1 165/1/1
f 166/1/2 86/1/2 165/1/2
f 86/1/2 166/1/2 85/1/2
f 86/1/3 167/1/3 165/1/3
f 167/1/3 86/1/3 84/1/3
f 83/1/4 166/1/4 168/1/4
f 166/1/4 83/1/4 85/1/4
f 83/1/5 167/1/5 84/1/5
f 167/1/5 83/1/5 168/1/5
f 86/1/6 83/1/6 84/1/6
f 83/1/6 86/1/6 85/1/6
f 174/1/1 175/1/1 176/1/1
f 175/1/1 174/1/1 173/1/1
f 174/1/2 94/1/2 173/1/2
f 94/1/2 174/1/2 93/1/2
f 94/1/3 175/1/3 173/1/3
f 175/1/3 94/1/3 92/1/3
f 91/1/4 174/1/4 176/1/4
f 174/1/4 91/1/4 93/1/4
f 91/1/5 175/1/5 92/1/5
f 175/1/5 91/1/5 176/1/5
f 94/1/6 91/1/6 92/1/6
f 91/1/6 94/1/6 93/1/6
f 182/1/1 183/1/1 184/1/1
f 183/1/1 182/1/1 181/1/1
f 182/1/2 102/1/2 181/1/2
f 102/1/2 182/1/2 101/1/2
f 102/1/3 183/1/3 181/1/3
f 183/1/3 102/1/3 100/1/3
f 99/1/4 182/1/4 184/1/4
f 182/1/4 99/1/4 101/1/4
f 99/1/5 183/1/5 100/1/5
f 183/1/5 99/1/5 184/1/5
f 102/1/6 99/1/6 100/1/6
f 99/1/6 102/1/6 101/1/6
f 190/1/1 191/1/1 192/1/1
f 191/1/1 190/1/1 189/1/1
f 190/1/2 110/1/2 189/1/2
f 110/1/2 190/1/2 109/1/2
f 110/1/3 191/1/3 189/1/3
f 191/1/3 110/1/3 108/1/3
f 107/1/4 190/1/4 192/1/4
f 190/1/4 107/1/4 109/1/4
f 107/1/5 191/1/5 108/1/5
f 191/1/5 107/1/5 192/1/5
f 110/1/6 107/1/6 108/1/6
f 107/1/6 110/1/6 109/1/6
f 198/1/1 199/1/1 200/1/1
f 199/1/1 198/1/1 197/1/1
f 198/1/2 118/1/2 197/1/2
f 118/1/2 198/1/2 117/1/2
f 118/1/3 199/1/3 197/1/3
f 199/1/3 118/1/3 116/1/3
f 115/1/4 198/1/4 200/1/4
f 198/1/4 115/1/4 117/1/4
f 115/1/5 199/1/5 116/1/5
f 199/1/5 115/1/5 200/1/5
f 118/1/6 115/1/6 116/1/6
f 115/1/6 118/1/6 117/1/6
f 206/1/1 207/1/1 208/1/1
f 207/1/1 206/1/1 205/1/1
f 206/1/2 126/1/2 205/1/2
f 126/1/2 206/1/2 125/1/2
f 126/1/3 207/1/3 205/1/3
f 207/1/3 126/1/3 124/1/3
f 123/1/4 206/1/4 208/1/4
f 206/1/4 123/1/4 125/1/4
f 123/1/5 207/1/5 124/1/5
f 207/1/5 123/1/5 208/1/5
f 126/1/6 123/1/6 124/1/6
f 123/1/6 126/1/6 125/1/6
f 214/1/1 215/1/1 216/1/1
f 215/1/1 214/1/1 213/1/1
f 214/1/2 134/1/2 213/1/2
f 134/1/2 214/1/2 133/1/2
f 134/1/3 215/1/3 213/1/3
f 215/1/3 134/1/3 132/1/3
f 131/1/4 214/1/4 216/1/4
f 214/1/4 131/1/4 133/1/4
f 131/1/5 215/1/5 132/1/5
f 215/1/5 131/1/5 216/1/5
f 134/1/6 131/1/6 132/1/6
f 131/1/6 134/1/6 133/1/6
f 222/1/1 223/1/1 224/1/1
f 223/1/1 222/1/1 221/1/1
f 222/1/2 142/1/2 221/1/2
f 142/1/2 222/1/2 141/1/2
f 142/1/3 223/1/3 221/1/3
f 223/1/3 142/1/3 140/1/3
f 139/1/4 222/1/4 224/1/4
f 222/1/4 139/1/4 141/1/4
f 139/1/5 223/1/5 140/1/5
f 223/1/5 139/1/5 224/1/5
f 142/1/6 139/1/6 140/1/6
f 139/1/6 142/1/6 141/1/6

